<?xml version="1.0" encoding="UTF-8" standalone="no"?>
<!-- Created with Inkscape (http://www.inkscape.org/) -->

<svg
   version="1.1"
   id="svg2"
   xml:space="preserve"
   width="666.66669"
   height="666.66669"
   viewBox="0 0 666.66669 666.66669"
   sodipodi:docname="iStock-1325946253.eps"
   xmlns:inkscape="http://www.inkscape.org/namespaces/inkscape"
   xmlns:sodipodi="http://sodipodi.sourceforge.net/DTD/sodipodi-0.dtd"
   xmlns="http://www.w3.org/2000/svg"
   xmlns:svg="http://www.w3.org/2000/svg"><defs
     id="defs6"><clipPath
       clipPathUnits="userSpaceOnUse"
       id="clipPath20"><path
         d="m 3297.23,2780.56 c -91.43,198.62 -267.98,419.31 -315.27,447.69 -25.72,15.42 -77.46,21.5 -119.39,23.86 9.69,-11.01 24.75,-29.71 34.77,-49.76 15.77,-31.53 69.36,-110.34 107.2,-211.23 11.92,-31.79 40.98,-179.7 37.83,-296.35 -1.01,-37.43 -5.6,-96.95 -11.35,-160.51 49.64,-81.75 99.12,-157.24 99.12,-157.24 0,0 -31.53,-37.84 -40.99,-53.6 -9.45,-15.76 -42.56,-88.27 -58.32,-116.65 -12.37,-22.26 -74.96,-57.57 -93.93,-63.61 -4.47,-17.24 -13.6,-44.79 -18.84,-60.21 -0.44,-3.82 -0.86,-7.69 -1.24,-11.77 7.3,-1.24 27.97,-6.18 23.61,-22.71 -2.39,-9.09 -10.44,-26.88 -18.51,-43.57 6.61,-25.27 15.9,-44.04 15.9,-44.04 0,0 0,0 91.43,25.23 91.43,25.22 349.95,157.63 394.09,201.76 44.13,44.15 -34.68,394.1 -126.11,592.71 z"
         id="path18" /></clipPath><linearGradient
       x1="0"
       y1="0"
       x2="1"
       y2="0"
       gradientUnits="userSpaceOnUse"
       gradientTransform="matrix(-939.501,-498.125,-498.125,939.501,3547.97,2928.12)"
       spreadMethod="pad"
       id="linearGradient26"><stop
         style="stop-opacity:1;stop-color:#4e6ebe"
         offset="0"
         id="stop22" /><stop
         style="stop-opacity:1;stop-color:#2f3992"
         offset="1"
         id="stop24" /></linearGradient><clipPath
       clipPathUnits="userSpaceOnUse"
       id="clipPath36"><path
         d="m 2087.12,3281.49 c 119.74,44.24 160.02,58.07 160.02,58.07 0,0 4.63,115.21 5.47,184.52 3.97,-8.36 8,-16.18 12.14,-22.77 54.21,-86.43 148.66,-116.32 224.23,-133.49 16.49,-3.75 33.59,-4.15 50.63,-2.13 l 1.75,-33.86 c 0,0 226.75,-51.54 251.91,-62.18 25.18,-10.63 46.16,-17.04 46.16,-17.04 0,0 148.26,-200.39 168.81,-295.07 20.56,-94.69 34.81,-191.43 6.62,-367.85 -20.88,-130.71 -77.86,-336.12 -105.99,-433.85 -9.55,-3.59 -229.82,-85.4 -425.05,-68 -181.32,16.15 -289.38,52.67 -307.69,59.23 -70.76,117.32 -210.62,372.07 -251.28,613.96 -55.15,328.15 -61.13,395.44 -61.13,395.44 0,0 71.8,69.01 223.4,125.02 z"
         id="path34" /></clipPath><linearGradient
       x1="0"
       y1="0"
       x2="1"
       y2="0"
       gradientUnits="userSpaceOnUse"
       gradientTransform="matrix(-18.915,-2307.76,2307.76,-18.915,2453.37,3716.04)"
       spreadMethod="pad"
       id="linearGradient42"><stop
         style="stop-opacity:1;stop-color:#4e6ebe"
         offset="0"
         id="stop38" /><stop
         style="stop-opacity:1;stop-color:#2f3992"
         offset="1"
         id="stop40" /></linearGradient><clipPath
       clipPathUnits="userSpaceOnUse"
       id="clipPath114"><path
         d="m 2598.9,1780.49 c 166.92,17.88 253.06,69.58 285.33,95.26 6.52,-46.57 15.66,-93.48 26.78,-101.57 23.12,-16.8 542.26,-296.34 592.7,-407.74 50.45,-111.4 39.93,-386.729 -10.51,-489.721 C 3442.76,773.73 3213.66,555.152 3106.47,527.832 2999.29,500.5 2787,479.492 2709.24,534.129 c -77.78,54.652 -226.99,102.992 -245.91,140.82 -18.92,37.84 -10.51,63.063 23.12,79.871 33.63,16.809 166.04,105.09 136.62,147.129 -29.44,42.031 -121.91,88.27 -121.91,88.27 0,0 182.85,-37.828 178.65,-77.77 -4.2,-39.929 -12.61,-86.168 -27.32,-100.879 -14.72,-14.711 -56.75,0 -33.63,-56.75 23.12,-56.75 81.97,-130.308 153.43,-119.8 71.46,10.511 199.67,48.339 218.59,172.351 18.91,124 10.51,357.299 -90.38,401.429 -100.89,44.14 -420.36,-14.71 -527.55,157.64 -70.91,114 -82.02,321.74 -81.43,449.36 46.55,-22.25 154.25,-51.71 307.38,-35.31 z"
         id="path112" /></clipPath><linearGradient
       x1="0"
       y1="0"
       x2="1"
       y2="0"
       gradientUnits="userSpaceOnUse"
       gradientTransform="matrix(-592.703,1815.94,1815.94,592.703,3208.58,331.05)"
       spreadMethod="pad"
       id="linearGradient120"><stop
         style="stop-opacity:1;stop-color:#4e6ebe"
         offset="0"
         id="stop116" /><stop
         style="stop-opacity:1;stop-color:#2f3992"
         offset="1"
         id="stop118" /></linearGradient><clipPath
       clipPathUnits="userSpaceOnUse"
       id="clipPath130"><path
         d="m 2049.28,3266.99 c 0,0 -252.72,-32.7 -327.88,-85.13 -75.16,-52.43 -176.11,-413.34 -208.87,-602.95 -32.75,-189.6 -73.66,-427.56 -30.74,-459.5 42.92,-31.96 157.63,-132.41 438.22,-135.57 95.88,-1.07 244.41,20.03 251.86,56.17 7.45,36.15 -0.41,111.47 -0.41,111.47 0,0 61.9,-36.19 56.5,-21.05 -5.41,15.14 -24.2,34.69 -24.2,34.69 0,0 53.94,1.53 45.87,13.1 -8.07,11.56 -37.59,39.1 -37.59,39.1 0,0 28.99,-2.13 20.01,15.67 -8.98,17.8 -61.4,34.59 -61.4,34.59 0,0 44.48,-0.59 25.22,22.07 -19.25,22.67 -111.01,38.27 -122.95,11.04 -11.94,-27.25 9.46,-171.83 9.46,-171.83 l -305.89,161.81 190,356.03 38.65,-26.02 c 0,0 188.88,441.28 44.14,646.31 z"
         id="path128" /></clipPath><linearGradient
       x1="0"
       y1="0"
       x2="1"
       y2="0"
       gradientUnits="userSpaceOnUse"
       gradientTransform="matrix(-1992.5,-800.782,-800.782,1992.5,2921.68,2998.74)"
       spreadMethod="pad"
       id="linearGradient136"><stop
         style="stop-opacity:1;stop-color:#4e6ebe"
         offset="0"
         id="stop132" /><stop
         style="stop-opacity:1;stop-color:#2f3992"
         offset="1"
         id="stop134" /></linearGradient></defs><sodipodi:namedview
     id="namedview4"
     pagecolor="#ffffff"
     bordercolor="#666666"
     borderopacity="1.0"
     inkscape:pageshadow="2"
     inkscape:pageopacity="0.0"
     inkscape:pagecheckerboard="0" /><g
     id="g8"
     inkscape:groupmode="layer"
     inkscape:label="ink_ext_XXXXXX"
     transform="matrix(1.3333333,0,0,-1.3333333,0,666.66667)"><g
       id="g10"
       transform="scale(0.1)"><path
         d="M 5000,0 H 0 V 5000 H 5000 V 0"
         style="fill:#ffffff;fill-opacity:1;fill-rule:nonzero;stroke:none"
         id="path12" /><g
         id="g14"><g
           id="g16"
           clip-path="url(#clipPath20)"><path
             d="m 3297.23,2780.56 c -91.43,198.62 -267.98,419.31 -315.27,447.69 -25.72,15.42 -77.46,21.5 -119.39,23.86 9.69,-11.01 24.75,-29.71 34.77,-49.76 15.77,-31.53 69.36,-110.34 107.2,-211.23 11.92,-31.79 40.98,-179.7 37.83,-296.35 -1.01,-37.43 -5.6,-96.95 -11.35,-160.51 49.64,-81.75 99.12,-157.24 99.12,-157.24 0,0 -31.53,-37.84 -40.99,-53.6 -9.45,-15.76 -42.56,-88.27 -58.32,-116.65 -12.37,-22.26 -74.96,-57.57 -93.93,-63.61 -4.47,-17.24 -13.6,-44.79 -18.84,-60.21 -0.44,-3.82 -0.86,-7.69 -1.24,-11.77 7.3,-1.24 27.97,-6.18 23.61,-22.71 -2.39,-9.09 -10.44,-26.88 -18.51,-43.57 6.61,-25.27 15.9,-44.04 15.9,-44.04 0,0 0,0 91.43,25.23 91.43,25.22 349.95,157.63 394.09,201.76 44.13,44.15 -34.68,394.1 -126.11,592.71"
             style="fill:url(#linearGradient26);fill-opacity:1;fill-rule:nonzero;stroke:none"
             id="path28" /></g></g><g
         id="g30"><g
           id="g32"
           clip-path="url(#clipPath36)"><path
             d="m 2087.12,3281.49 c 119.74,44.24 160.02,58.07 160.02,58.07 0,0 4.63,115.21 5.47,184.52 3.97,-8.36 8,-16.18 12.14,-22.77 54.21,-86.43 148.66,-116.32 224.23,-133.49 16.49,-3.75 33.59,-4.15 50.63,-2.13 l 1.75,-33.86 c 0,0 226.75,-51.54 251.91,-62.18 25.18,-10.63 46.16,-17.04 46.16,-17.04 0,0 148.26,-200.39 168.81,-295.07 20.56,-94.69 34.81,-191.43 6.62,-367.85 -20.88,-130.71 -77.86,-336.12 -105.99,-433.85 -9.55,-3.59 -229.82,-85.4 -425.05,-68 -181.32,16.15 -289.38,52.67 -307.69,59.23 -70.76,117.32 -210.62,372.07 -251.28,613.96 -55.15,328.15 -61.13,395.44 -61.13,395.44 0,0 71.8,69.01 223.4,125.02"
             style="fill:url(#linearGradient42);fill-opacity:1;fill-rule:nonzero;stroke:none"
             id="path44" /></g></g><path
         d="m 2486.25,3368.01 c 16.5,-3.66 33.6,-3.97 50.63,-1.87 l 1.44,-25.39 c -18.88,-5.05 -44.51,-7.68 -79.39,-4.26 -107.19,10.51 -197.57,163.93 -197.57,163.93 54.65,-86.17 149.23,-115.59 224.89,-132.41"
         style="fill:#29337d;fill-opacity:1;fill-rule:nonzero;stroke:none"
         id="path46" /><path
         d="m 2597.65,4097.34 c 33.62,-14.72 94.58,-52.55 126.1,-191.27 31.53,-138.71 -2.1,-390.93 -37.83,-447.68 -35.73,-56.75 -124.01,-107.2 -199.67,-90.38 -75.66,16.82 -170.24,46.24 -224.89,132.41 -54.65,86.17 -97.76,335.78 -79.87,456.1 23.12,155.52 237.74,218.87 416.16,140.82"
         style="fill:#4e6ebe;fill-opacity:1;fill-rule:nonzero;stroke:none"
         id="path48" /><path
         d="m 2918.16,2178.4 c 0,0 23.13,-8.41 21.03,-25.22 -2.11,-16.81 -25.23,-83.02 -25.23,-83.02 0,0 31.53,-3.15 26.27,-23.12 -5.25,-19.97 -37.83,-81.97 -37.83,-81.97 0,0 6.31,-65.15 -4.2,-77.76 -10.5,-12.62 -93.53,-86.18 -299.51,-108.24 -205.97,-22.07 -329.97,38.87 -333.12,53.59 -3.16,14.71 -2.11,29.42 -2.11,29.42 0,0 -42.03,83.02 -39.93,105.09 2.1,22.07 10.5,40.99 10.5,40.99 0,0 -54.64,88.27 -55.69,107.18 -1.05,18.92 -2.1,31.54 -2.1,31.54 0,0 111.39,-42.04 311.06,-58.86 199.67,-16.81 425.61,70.41 425.61,70.41 l 5.25,19.97"
         style="fill:#e61542;fill-opacity:1;fill-rule:nonzero;stroke:none"
         id="path50" /><path
         d="m 2521.98,4045.84 c 0,0 -141.87,-58.33 -208.07,-146.6 -66.21,-88.28 -108.77,-226.99 -108.77,-226.99 l 9.45,-59.9 c 0,0 -260.09,108.77 -304.23,277.43 -44.13,168.67 14.19,274.29 86.7,356.26 72.51,81.96 364.13,274.28 483.94,252.21 119.8,-22.07 351.52,-154.49 427.18,-348.37 43.7,-111.97 4.73,-277.44 -28.38,-359.41 -33.09,-81.97 -156.05,-187.59 -156.05,-187.59 0,0 22.07,178.14 7.88,239.61 -14.18,61.48 -116.65,167.09 -209.65,203.35"
         style="fill:#fcd4dc;fill-opacity:1;fill-rule:nonzero;stroke:none"
         id="path52" /><path
         d="m 2490.46,3807.82 c 0,0 -17.34,42.55 -56.76,40.97 -39.4,-1.57 -72.51,-20.49 -81.96,-29.94 -9.46,-9.46 -33.11,-44.14 -33.11,-44.14 0,0 60.43,22.07 105.62,29.42 38.92,6.34 66.21,3.69 66.21,3.69"
         style="fill:#15161a;fill-opacity:1;fill-rule:nonzero;stroke:none"
         id="path54" /><path
         d="m 2366.45,3691.97 c 0,-22.21 14.35,-40.22 32.06,-40.22 17.69,0 32.05,18.01 32.05,40.22 0,22.2 -14.36,40.2 -32.05,40.2 -17.71,0 -32.06,-18 -32.06,-40.2"
         style="fill:#15161a;fill-opacity:1;fill-rule:nonzero;stroke:none"
         id="path56" /><path
         d="m 2576.63,3808.33 c 0,0 14.67,37.84 44.43,36.26 29.78,-1.57 54.78,-20.49 61.93,-29.95 7.14,-9.45 25,-44.13 25,-44.13 0,0 -45.65,22.06 -79.78,29.42 -29.4,6.33 -51.58,8.4 -51.58,8.4"
         style="fill:#15161a;fill-opacity:1;fill-rule:nonzero;stroke:none"
         id="path58" /><path
         d="m 2660.18,3687.76 c 0,-22.21 -14.36,-40.21 -32.05,-40.21 -17.71,0 -32.07,18 -32.07,40.21 0,22.21 14.36,40.21 32.07,40.21 17.69,0 32.05,-18 32.05,-40.21"
         style="fill:#15161a;fill-opacity:1;fill-rule:nonzero;stroke:none"
         id="path60" /><path
         d="m 2558.77,3564.52 c 1.46,0 2.93,0.51 4.12,1.55 1.03,0.89 25.2,22.1 26.35,51.8 0.92,24.02 -19.61,32.82 -31.89,38.07 -3.58,1.53 -7.65,3.28 -8.84,4.47 -6.02,6.04 -11.52,17.49 -6.62,56.77 4.99,39.86 31.19,76.59 31.45,76.95 2.02,2.84 1.4,6.77 -1.44,8.8 -2.79,2.03 -6.73,1.42 -8.78,-1.41 -1.17,-1.6 -28.34,-39.64 -33.74,-82.77 -5.56,-44.56 1.62,-58.65 10.21,-67.25 2.92,-2.92 7.5,-4.88 12.79,-7.16 14.08,-6.03 24.8,-11.76 24.24,-25.97 -0.92,-24.3 -21.77,-42.59 -21.98,-42.77 -2.64,-2.27 -2.92,-6.26 -0.64,-8.9 1.24,-1.43 3,-2.18 4.77,-2.18"
         style="fill:#29337d;fill-opacity:1;fill-rule:nonzero;stroke:none"
         id="path62" /><path
         d="m 2628.13,3516.18 c 0,0 -39.95,-68.3 -106.15,-54.63 -66.21,13.66 -92.48,59.9 -92.48,59.9 l 198.63,-5.27"
         style="fill:#ffffff;fill-opacity:1;fill-rule:nonzero;stroke:none"
         id="path64" /><path
         d="m 2554.56,3552.97 c 0,0 -50.45,44.14 -69.35,48.34 -18.93,4.2 -38.89,-9.45 -54.65,-23.12 -15.77,-13.66 -37.84,-45.19 -51.5,-42.03 -13.66,3.15 -37.83,19.97 -37.83,19.97 0,0 56.75,-65.16 88.27,-62.01 31.53,3.15 127.16,35.73 127.16,35.73 0,0 83.02,-51.5 108.24,-40.98 25.23,10.51 75.67,56.74 75.67,56.74 0,0 -36.78,-31.52 -49.4,-24.16 -12.61,7.35 -40.98,66.2 -64.1,70.41 -23.11,4.2 -72.51,-38.89 -72.51,-38.89"
         style="fill:#15161a;fill-opacity:1;fill-rule:nonzero;stroke:none"
         id="path66" /><path
         d="m 2612.58,3375.07 c -1.63,-15.12 -9.37,-29.3 -19.73,-40.39 -8.73,-9.34 -19.5,-16.47 -29.14,-24.85 -9.64,-8.39 -18.48,-18.62 -21.33,-31.08 -2.84,-12.45 2,-27.35 13.6,-32.7 10.19,-4.7 22.11,-1.13 32.74,2.5 -23.22,-13.57 -48.92,-24.62 -75.81,-24.73 -13.23,-0.05 -26.85,2.76 -37.62,10.43 -21.48,15.31 -34.29,41.24 -27.07,67.26 2.26,8.09 6.16,15.66 8.31,23.79 3.14,11.83 2.13,24.62 -2.34,35.99 -4.69,11.91 -12.08,24.59 -12.08,24.59 0,0 43.88,18.34 49.39,14.71 3.16,-2.1 17.87,-19.96 17.87,-19.96 0,0 24.17,34.68 28.37,32.58 4.21,-2.11 17.87,-21.03 17.87,-21.03 l 31.53,19.97 14.71,-15.76 c 0,0 11.61,-13.24 10.73,-21.32"
         style="fill:#15161a;fill-opacity:1;fill-rule:nonzero;stroke:none"
         id="path68" /><path
         d="m 2732.51,3610.65 c 4.04,33.72 9.71,83.9 12.26,120.97 4.2,60.95 -4.2,117.7 -4.2,117.7 l 39.93,-44.13 c 0,0 52.55,56.75 92.48,115.59 22.85,33.68 39.47,112.01 49.55,174.51 17.39,-106.02 -14.67,-235.36 -42.73,-304.82 -27.82,-68.91 -118.9,-154.3 -147.29,-179.82"
         style="fill:#f4697e;fill-opacity:1;fill-rule:nonzero;stroke:none"
         id="path70" /><path
         d="m 1910.36,3889.78 c -18.07,69.08 -18.77,127.45 -8.54,178.08 19.76,69.25 61.09,105.14 61.09,105.14 0,0 -4.21,-60.96 0,-77.76 4.2,-16.82 111.39,-126.12 184.95,-163.95 73.57,-37.83 151.33,-35.73 151.33,-35.73 0,0 -46.24,-79.86 -54.65,-94.58 -8.4,-14.71 -44.13,-113.5 -46.23,-130.31 -1.18,-9.39 0.93,-33.19 3.01,-52.39 -53.38,24.71 -252.8,125.69 -290.96,271.5"
         style="fill:#f4697e;fill-opacity:1;fill-rule:nonzero;stroke:none"
         id="path72" /><path
         d="m 2509.37,4364.26 c 0,0 94.59,-121.9 84.07,-159.74 -10.51,-37.83 -71.46,-102.98 -79.87,-100.88 -8.4,2.09 -86.17,73.56 -86.17,113.49 0,39.94 81.97,147.13 81.97,147.13"
         style="fill:#e61542;fill-opacity:1;fill-rule:nonzero;stroke:none"
         id="path74" /><path
         d="m 2280.27,4259.17 c 0,0 27.33,39.94 63.06,35.74 35.73,-4.21 77.76,-31.54 71.46,-29.43 -6.3,2.1 -134.52,-6.31 -134.52,-6.31"
         style="fill:#f4697e;fill-opacity:1;fill-rule:nonzero;stroke:none"
         id="path76" /><path
         d="m 2282.37,4141.47 c 0,0 4.21,50.45 35.74,65.16 31.52,14.71 88.28,33.63 79.87,23.12 -8.41,-10.51 -115.61,-88.28 -115.61,-88.28"
         style="fill:#f4697e;fill-opacity:1;fill-rule:nonzero;stroke:none"
         id="path78" /><path
         d="m 2610.25,4219.24 c 0,0 75.67,-16.81 96.68,-35.73 21.03,-18.92 42.04,-71.47 29.44,-63.06 -12.62,8.41 -126.12,98.79 -126.12,98.79"
         style="fill:#f4697e;fill-opacity:1;fill-rule:nonzero;stroke:none"
         id="path80" /><path
         d="m 2614.46,4282.29 c 0,0 42.03,16.82 54.65,0 12.61,-16.81 25.22,-35.74 14.71,-29.43 -10.51,6.31 -69.36,29.43 -69.36,29.43"
         style="fill:#f4697e;fill-opacity:1;fill-rule:nonzero;stroke:none"
         id="path82" /><path
         d="m 2576.63,4189.81 c 0,0 -47.29,-72.51 -60.96,-75.67 -13.66,-3.14 -76.71,72.52 -77.76,99.85 -1.05,27.31 32.58,75.65 32.58,72.51 0,-3.16 -24.17,-55.71 -16.82,-62 7.36,-6.31 51.5,-19.98 62,-34.69 10.51,-14.71 14.72,-31.52 14.72,-31.52 0,0 42.03,19.96 46.24,31.52"
         style="fill:#a51646;fill-opacity:1;fill-rule:nonzero;stroke:none"
         id="path84" /><path
         d="m 2511.47,4339.04 c 0,0 -17.87,-31.53 -14.71,-54.65 3.15,-23.12 50.45,-73.56 59.9,-69.36 9.45,4.21 19.97,16.82 17.86,23.13 -0.98,2.97 -9.59,25.32 -24.17,48.34 -16.39,25.88 -38.88,52.54 -38.88,52.54"
         style="fill:#f4697e;fill-opacity:1;fill-rule:nonzero;stroke:none"
         id="path86" /><path
         d="m 2177.07,2135.58 c 31.27,-12.38 96.42,-36.34 109.51,-41.25 16.82,-6.31 161.84,-16.82 157.64,-23.12 -4.21,-6.3 -21.03,-52.54 -27.33,-67.25 -6.3,-14.72 -21.02,-33.63 -21.02,-33.63 0,0 48.35,-21.02 46.24,-37.84 -2.1,-16.81 -18.92,-60.94 -18.92,-60.94 0,0 29.44,-25.23 18.92,-44.14 -10.51,-18.92 -29.42,-33.64 -39.93,-35.74 -6.58,-1.32 -70.95,14.7 -124.3,29.95 -7.43,4.58 -11.78,8.52 -12.31,11.04 -3.16,14.71 -2.11,29.42 -2.11,29.42 0,0 -42.03,83.02 -39.93,105.09 2.1,22.07 10.5,40.99 10.5,40.99 0,0 -54.64,88.27 -55.69,107.18 -0.46,8.22 -0.9,14.93 -1.27,20.24"
         style="fill:#a51646;fill-opacity:1;fill-rule:nonzero;stroke:none"
         id="path88" /><path
         d="m 2421.09,1982.93 c 0,0 50.44,27.33 84.08,35.74 33.63,8.4 233.3,16.81 269.03,18.91 35.72,2.1 130.3,56.75 128.2,48.34 -2.1,-8.41 -4.2,-27.32 -12.61,-31.52 -8.4,-4.21 -170.24,-50.44 -199.66,-50.44 -29.44,0 -174.46,6.3 -182.86,4.2 -8.41,-2.1 -86.18,-25.23 -86.18,-25.23"
         style="fill:#a51646;fill-opacity:1;fill-rule:nonzero;stroke:none"
         id="path90" /><path
         d="m 2452.63,1886.25 c 0,0 203.86,23.12 218.58,27.33 14.71,4.2 52.54,16.81 52.54,16.81 l -197.57,2.1 c 0,0 -71.45,21.02 -63.05,25.23 8.4,4.2 88.28,-16.82 100.88,-14.72 12.62,2.1 201.78,10.51 220.7,14.72 18.91,4.2 126.1,52.54 121.9,42.03 -4.21,-10.51 -25.22,-46.24 -25.22,-46.24 0,0 16.81,-14.72 8.4,-18.92 -8.4,-4.2 -113.49,-10.5 -119.8,-12.6 -6.3,-2.1 -90.37,-29.43 -119.8,-35.74 -29.43,-6.31 -222.79,-18.91 -214.38,-12.6 8.41,6.29 16.82,12.6 16.82,12.6"
         style="fill:#a51646;fill-opacity:1;fill-rule:nonzero;stroke:none"
         id="path92" /><path
         d="m 2657.55,3304.96 c 0,0 138.71,-220.69 176.54,-416.16 37.83,-195.46 -30.47,-613.72 -30.47,-613.72 0,0 50.44,-16.82 111.4,-25.22 41.07,-5.67 86.17,-4.2 86.17,-4.2 0,0 37.83,331.03 40.99,447.68 3.14,116.65 -25.92,264.55 -37.84,296.35 -37.84,100.89 -91.43,179.71 -107.19,211.23 -15.76,31.52 -44.13,59.9 -44.13,59.9 0,0 -154.48,44.14 -163.95,47.29 -9.45,3.15 -25.22,3.15 -31.52,-3.15"
         style="fill:#e61542;fill-opacity:1;fill-rule:nonzero;stroke:none"
         id="path94" /><path
         d="m 2225.63,3338.59 c 0,0 134.52,-245.91 159.73,-475 25.23,-229.1 44.14,-584.3 44.14,-584.3 0,0 -46.24,-27.32 -151.33,-39.94 -105.08,-12.61 -174.45,2.11 -174.45,2.11 0,0 -73.56,174.44 -92.47,212.27 -18.92,37.84 -27.32,73.57 -27.32,73.57 0,0 111.39,163.93 134.51,281.64 23.12,117.69 -10.51,346.8 -14.72,372.01 -4.2,25.22 -33.62,94.58 -33.62,94.58 l -48.34,-23.11 c 0,0 4.2,18.91 16.81,27.32 12.61,8.41 151.33,58.85 163.94,60.95 12.61,2.11 23.12,-2.1 23.12,-2.1"
         style="fill:#e61542;fill-opacity:1;fill-rule:nonzero;stroke:none"
         id="path96" /><path
         d="m 2566.11,2958.17 c 0,0 31.54,-231.2 23.13,-279.54 -8.41,-48.34 -18.92,-86.18 -18.92,-86.18 0,0 48.34,58.85 54.65,90.38 6.3,31.53 -8.41,111.39 -12.62,138.72 -4.2,27.32 -46.24,136.62 -46.24,136.62"
         style="fill:#29337d;fill-opacity:1;fill-rule:nonzero;stroke:none"
         id="path98" /><path
         d="m 2650.47,3418.14 c 3.81,-4.21 7.08,-5.99 7.08,-5.99 0,0 21.01,1.06 28.37,8.41 4.4,4.39 5.76,28.3 5.95,49.32 6.41,14.09 12.61,34.1 18.28,58.11 2.11,-4.67 4.27,-10.83 5.19,-19.16 2.11,-18.91 2.11,-93.52 -5.25,-105.09 -7.36,-11.56 -34.68,-19.97 -50.44,-18.91 -9.54,0.63 -19.83,8.24 -28.81,18.31 6.87,4.72 13.5,9.7 19.63,15"
         style="fill:#c6911a;fill-opacity:1;fill-rule:nonzero;stroke:none"
         id="path100" /><path
         d="m 2233.52,3612.35 c 0,0 -36.26,104.03 -88.29,81.97 -52.02,-22.07 -81.97,-96.16 -33.1,-143.45 48.87,-47.29 149.75,-25.22 149.75,-25.22 l -28.36,86.7"
         style="fill:#4992bb;fill-opacity:1;fill-rule:nonzero;stroke:none"
         id="path102" /><path
         d="m 2216.46,3547.3 c 5.01,0 8.76,0.34 9.82,0.46 3.47,0.35 5.98,3.44 5.61,6.9 -0.35,3.46 -3.62,5.96 -6.9,5.63 -10.08,-1.01 -28.44,-0.32 -34.94,5.95 -1.75,1.68 -2.45,3.62 -2.27,6.28 1.42,21.23 9.73,32.81 9.81,32.92 1.79,2.46 1.61,5.87 -0.48,8.09 l -55.18,58.32 c -2.41,2.5 -6.37,2.66 -8.91,0.25 -2.52,-2.39 -2.64,-6.38 -0.25,-8.91 l 51.88,-54.84 c -3.27,-6.04 -8.3,-17.9 -9.45,-35 -0.42,-6.34 1.68,-11.94 6.11,-16.2 8.65,-8.35 24.69,-9.85 35.15,-9.85"
         style="fill:#29337d;fill-opacity:1;fill-rule:nonzero;stroke:none"
         id="path104" /><path
         d="m 2228.78,3537.21 c 0,0 -9.45,12.61 -16.82,9.45 -7.35,-3.15 -14.7,-8.4 -11.55,-13.66 3.15,-5.25 13.66,-19.96 14.71,-31.52 1.05,-11.56 2.1,-73.57 -5.26,-80.92 -7.35,-7.35 -28.37,-8.41 -28.37,-8.41 0,0 -16.81,8.41 -18.91,36.78 -2.11,28.38 3.14,75.66 3.14,75.66 l -19.96,5.26 c 0,0 -16.81,-86.18 -6.31,-105.09 10.51,-18.92 28.38,-38.88 44.14,-39.93 15.77,-1.06 43.09,7.35 50.44,18.91 7.37,11.57 7.37,86.18 5.26,105.09 -2.1,18.92 -10.51,28.38 -10.51,28.38"
         style="fill:#dfba10;fill-opacity:1;fill-rule:nonzero;stroke:none"
         id="path106" /><g
         id="g108"><g
           id="g110"
           clip-path="url(#clipPath114)"><path
             d="m 2598.9,1780.49 c 166.92,17.88 253.06,69.58 285.33,95.26 6.52,-46.57 15.66,-93.48 26.78,-101.57 23.12,-16.8 542.26,-296.34 592.7,-407.74 50.45,-111.4 39.93,-386.729 -10.51,-489.721 C 3442.76,773.73 3213.66,555.152 3106.47,527.832 2999.29,500.5 2787,479.492 2709.24,534.129 c -77.78,54.652 -226.99,102.992 -245.91,140.82 -18.92,37.84 -10.51,63.063 23.12,79.871 33.63,16.809 166.04,105.09 136.62,147.129 -29.44,42.031 -121.91,88.27 -121.91,88.27 0,0 182.85,-37.828 178.65,-77.77 -4.2,-39.929 -12.61,-86.168 -27.32,-100.879 -14.72,-14.711 -56.75,0 -33.63,-56.75 23.12,-56.75 81.97,-130.308 153.43,-119.8 71.46,10.511 199.67,48.339 218.59,172.351 18.91,124 10.51,357.299 -90.38,401.429 -100.89,44.14 -420.36,-14.71 -527.55,157.64 -70.91,114 -82.02,321.74 -81.43,449.36 46.55,-22.25 154.25,-51.71 307.38,-35.31"
             style="fill:url(#linearGradient120);fill-opacity:1;fill-rule:nonzero;stroke:none"
             id="path122" /></g></g><g
         id="g124"><g
           id="g126"
           clip-path="url(#clipPath130)"><path
             d="m 2049.28,3266.99 c 0,0 -252.72,-32.7 -327.88,-85.13 -75.16,-52.43 -176.11,-413.34 -208.87,-602.95 -32.75,-189.6 -73.66,-427.56 -30.74,-459.5 42.92,-31.96 157.63,-132.41 438.22,-135.57 95.88,-1.07 244.41,20.03 251.86,56.17 7.45,36.15 -0.41,111.47 -0.41,111.47 0,0 61.9,-36.19 56.5,-21.05 -5.41,15.14 -24.2,34.69 -24.2,34.69 0,0 53.94,1.53 45.87,13.1 -8.07,11.56 -37.59,39.1 -37.59,39.1 0,0 28.99,-2.13 20.01,15.67 -8.98,17.8 -61.4,34.59 -61.4,34.59 0,0 44.48,-0.59 25.22,22.07 -19.25,22.67 -111.01,38.27 -122.95,11.04 -11.94,-27.25 9.46,-171.83 9.46,-171.83 l -305.89,161.81 190,356.03 38.65,-26.02 c 0,0 188.88,441.28 44.14,646.31"
             style="fill:url(#linearGradient136);fill-opacity:1;fill-rule:nonzero;stroke:none"
             id="path138" /></g></g><path
         d="m 1920.01,1983.84 c -83.55,0.94 -152.11,10.62 -208.73,24.43 -6.67,41.54 -12,113.67 16.42,172.61 22.27,46.18 53.1,76.29 77.5,94.6 l 277.18,-146.62 c 0,0 -18.92,-26.8 -20.5,-63.05 -0.81,-18.61 7.52,-45.89 15.82,-68.09 -49.79,-9.48 -110.18,-14.42 -157.69,-13.88"
         style="fill:#dfba10;fill-opacity:1;fill-rule:nonzero;stroke:none"
         id="path140" /><path
         d="m 1568.33,2799.25 c 0,0 58.67,-71.66 191.25,-123.1 132.57,-51.44 194.25,-54.9 194.25,-54.9 0,0 12.76,-6.47 8.48,-23.93 -4.28,-17.46 -32.59,-63.17 -38.95,-68.14 -6.36,-4.98 -20.91,-9.31 -20.91,-9.31 0,0 -142.92,5.71 -245.94,68.52 -103.02,62.82 -140.75,127.37 -138.06,143.59 2.69,16.22 22.81,62.55 30.76,68.78 7.95,6.22 19.12,-1.51 19.12,-1.51"
         style="fill:#dfba10;fill-opacity:1;fill-rule:nonzero;stroke:none"
         id="path142" /><path
         d="m 3284.4,2850.99 c -7.83,6.35 -19.13,-1.18 -19.13,-1.18 0,0 -59.87,-70.67 -193.3,-119.88 -10.28,-3.78 -19.99,-7.21 -29.43,-10.46 0.08,-8.35 0.05,-16.62 -0.17,-24.7 -0.71,-26.12 -3.16,-63.04 -6.53,-104.54 43.86,9.31 94.15,24.67 137.71,50.23 104.07,61.08 142.88,124.98 140.45,141.24 -2.41,16.26 -21.74,62.93 -29.6,69.29"
         style="fill:#dfba10;fill-opacity:1;fill-rule:nonzero;stroke:none"
         id="path144" /><path
         d="m 2972.5,2044.42 c 0,0 17.34,212.8 1.58,242.75 -15.76,29.95 -59.9,34.68 -83.54,22.07 -23.66,-12.62 -63.06,-88.28 -48.87,-80.4 14.19,7.88 45.71,36.26 45.71,36.26 0,0 -50.45,-91.43 -34.67,-88.27 15.76,3.14 48.86,36.25 48.86,36.25 0,0 -52.02,-48.87 -42.57,-53.59 9.47,-4.73 54.11,0.38 54.11,0.38 0,0 -60.4,-36.64 -49.37,-42.94 11.03,-6.31 50.44,7.88 50.44,7.88 0,0 -9.46,-113.5 -4.73,-132.41 4.73,-18.92 11.04,-29.96 28.37,-31.54 17.35,-1.57 37.83,15.77 37.83,15.77 l -3.15,67.79"
         style="fill:#4e6ebe;fill-opacity:1;fill-rule:nonzero;stroke:none"
         id="path146" /><path
         d="m 3156.93,2274.55 c -30.97,26.66 -56.93,33.48 -76.08,33.12 -13.81,-27.52 -37.39,-78.16 -50.02,-100.9 -6.92,-12.45 -29.41,-28.81 -51.25,-41.95 -2.24,-60.65 -7.08,-120.4 -7.08,-120.4 l 3.15,-67.79 c 0,0 -1.36,-1.15 -3.66,-2.82 l 0.35,-3.43 c 13.27,3.67 31.44,8.69 56.91,15.71 43.55,12.01 124.99,48.4 203.13,87.93 -6.34,59.21 -28.28,159.96 -75.45,200.53"
         style="fill:#dfba10;fill-opacity:1;fill-rule:nonzero;stroke:none"
         id="path148" /><path
         d="m 2638.32,2140.57 c 0,0 12.61,56.75 18.92,107.19 6.3,50.45 -50.44,-50.44 -50.44,-107.19 0,-16.42 2.14,-34.4 5.13,-51.69 20.22,1.8 40.15,4.12 59.53,7.02 -15.15,23.38 -33.14,44.67 -33.14,44.67"
         style="fill:#29337d;fill-opacity:1;fill-rule:nonzero;stroke:none"
         id="path150" /></g></g></svg>
